<mxfile host="app.diagrams.net" modified="2020-05-13T08:48:52.587Z" agent="5.0 (Windows NT 10.0; Win64; x64) AppleWebKit/537.36 (KHTML, like Gecko) Chrome/80.0.3987.163 Safari/537.36" etag="w5ietVfl-zMbhLErvtrZ" version="13.0.9" type="github">
  <diagram id="B2QcMRIDSJXb05sgOhBZ" name="第 1 页">
    <mxGraphModel dx="3650" dy="972" grid="1" gridSize="10" guides="1" tooltips="1" connect="1" arrows="1" fold="1" page="1" pageScale="1" pageWidth="1920" pageHeight="1200" math="0" shadow="0">
      <root>
        <mxCell id="0" />
        <mxCell id="1" parent="0" />
        <mxCell id="BmJq23okPt8XBxkQ6SYb-19" value="" style="group" parent="1" vertex="1" connectable="0">
          <mxGeometry x="-90" y="360" width="540" height="520" as="geometry" />
        </mxCell>
        <mxCell id="BmJq23okPt8XBxkQ6SYb-23" value="" style="rounded=0;whiteSpace=wrap;html=1;fillColor=none;fontSize=18;dashed=1;" parent="BmJq23okPt8XBxkQ6SYb-19" vertex="1">
          <mxGeometry width="460" height="150" as="geometry" />
        </mxCell>
        <mxCell id="BmJq23okPt8XBxkQ6SYb-20" value="&lt;font style=&quot;font-size: 20px&quot;&gt;TcpSource&lt;/font&gt;" style="shape=step;perimeter=stepPerimeter;whiteSpace=wrap;html=1;fixedSize=1;fontSize=18;shadow=1;" parent="BmJq23okPt8XBxkQ6SYb-19" vertex="1">
          <mxGeometry x="20" y="50" width="160" height="80" as="geometry" />
        </mxCell>
        <mxCell id="BmJq23okPt8XBxkQ6SYb-21" value="&lt;font style=&quot;font-size: 20px&quot;&gt;GlogInterceptor&lt;/font&gt;" style="shape=step;perimeter=stepPerimeter;whiteSpace=wrap;html=1;fixedSize=1;fontSize=18;shadow=1;" parent="BmJq23okPt8XBxkQ6SYb-19" vertex="1">
          <mxGeometry x="260" y="50" width="190" height="80" as="geometry" />
        </mxCell>
        <mxCell id="BmJq23okPt8XBxkQ6SYb-22" value="" style="edgeStyle=orthogonalEdgeStyle;rounded=0;orthogonalLoop=1;jettySize=auto;html=1;fontSize=18;" parent="BmJq23okPt8XBxkQ6SYb-19" source="BmJq23okPt8XBxkQ6SYb-20" target="BmJq23okPt8XBxkQ6SYb-21" edge="1">
          <mxGeometry relative="1" as="geometry" />
        </mxCell>
        <mxCell id="BmJq23okPt8XBxkQ6SYb-24" value="&lt;font style=&quot;font-size: 20px&quot;&gt;flume&lt;/font&gt;" style="text;html=1;strokeColor=none;fillColor=none;align=center;verticalAlign=middle;whiteSpace=wrap;rounded=0;dashed=1;fontSize=18;" parent="BmJq23okPt8XBxkQ6SYb-19" vertex="1">
          <mxGeometry x="60" y="10" width="70" height="30" as="geometry" />
        </mxCell>
        <mxCell id="BmJq23okPt8XBxkQ6SYb-2" value="&lt;h1 style=&quot;font-size: 25px&quot;&gt;&lt;font style=&quot;font-size: 25px&quot;&gt;Interceptor&lt;/font&gt;&lt;/h1&gt;&lt;div style=&quot;font-size: 25px&quot;&gt;&lt;font style=&quot;font-size: 25px&quot;&gt;1. 获取到swy_olnum_glog为real_topic&lt;/font&gt;&lt;/div&gt;&lt;div style=&quot;font-size: 25px&quot;&gt;&lt;font style=&quot;font-size: 25px&quot;&gt;2. 获取swy前缀，从Mapping里拿到元数据&lt;/font&gt;&lt;/div&gt;&lt;div style=&quot;font-size: 25px&quot;&gt;&lt;font style=&quot;font-size: 25px&quot;&gt;3. flume header ------&amp;gt; kafka header&lt;/font&gt;&lt;/div&gt;&lt;div style=&quot;font-size: 25px&quot;&gt;&lt;font style=&quot;font-size: 25px&quot;&gt;&amp;nbsp; &amp;nbsp; &lt;font color=&quot;#ff0000&quot; style=&quot;font-size: 25px&quot;&gt;cluster_id = 1&lt;/font&gt;&lt;/font&gt;&lt;/div&gt;&lt;div style=&quot;font-size: 25px&quot;&gt;&lt;font style=&quot;font-size: 25px&quot; color=&quot;#ff0000&quot;&gt;&amp;nbsp; &amp;nbsp; topic = original_swy_glog&lt;/font&gt;&lt;/div&gt;&lt;div style=&quot;font-size: 25px&quot;&gt;&lt;font style=&quot;font-size: 25px&quot; color=&quot;#ff0000&quot;&gt;&amp;nbsp; &amp;nbsp; real_topic = swy_olnum_glog&lt;/font&gt;&lt;/div&gt;&lt;div style=&quot;font-size: 25px&quot;&gt;&lt;font style=&quot;font-size: 25px&quot; color=&quot;#ff0000&quot;&gt;&amp;nbsp; &amp;nbsp; log_type = glog&lt;/font&gt;&lt;/div&gt;&lt;div style=&quot;font-size: 25px&quot;&gt;&lt;font style=&quot;font-size: 25px&quot; color=&quot;#ff0000&quot;&gt;&amp;nbsp; &amp;nbsp; key = 雪花算法&lt;/font&gt;&lt;/div&gt;&lt;div style=&quot;font-size: 25px&quot;&gt;&lt;font style=&quot;font-size: 25px&quot; color=&quot;#ff0000&quot;&gt;&amp;nbsp; &amp;nbsp; mapping = swy&lt;/font&gt;&lt;/div&gt;&lt;div style=&quot;font-size: 25px&quot;&gt;&lt;font style=&quot;font-size: 25px&quot;&gt;4. 通过avro schema序列化消息，并发送至kafka&lt;/font&gt;&lt;/div&gt;" style="text;html=1;strokeColor=none;fillColor=none;spacing=5;spacingTop=-20;whiteSpace=wrap;overflow=hidden;rounded=0;fontSize=18;" parent="BmJq23okPt8XBxkQ6SYb-19" vertex="1">
          <mxGeometry x="-30" y="150" width="570" height="370" as="geometry" />
        </mxCell>
        <mxCell id="BmJq23okPt8XBxkQ6SYb-1" value="&lt;font style=&quot;font-size: 24px&quot; color=&quot;#3333ff&quot;&gt;&lt;b&gt;符合glog规范的数据：swy_olnum_glog|12|a|13|abc|500&lt;/b&gt;&lt;/font&gt;" style="text;html=1;strokeColor=none;fillColor=none;align=center;verticalAlign=middle;whiteSpace=wrap;rounded=0;fontSize=18;" parent="1" vertex="1">
          <mxGeometry x="-130" y="120" width="660" height="70" as="geometry" />
        </mxCell>
        <mxCell id="BmJq23okPt8XBxkQ6SYb-3" value="&lt;font style=&quot;font-size: 20px&quot;&gt;Mapping&amp;lt;key,value&amp;gt;&lt;/font&gt;" style="shape=cylinder;whiteSpace=wrap;html=1;boundedLbl=1;backgroundOutline=1;fontSize=18;shadow=1;" parent="1" vertex="1">
          <mxGeometry x="150" y="230" width="210" height="80" as="geometry" />
        </mxCell>
        <mxCell id="BmJq23okPt8XBxkQ6SYb-4" value="" style="group" parent="1" vertex="1" connectable="0">
          <mxGeometry x="410" y="190" width="520" height="160" as="geometry" />
        </mxCell>
        <mxCell id="BmJq23okPt8XBxkQ6SYb-5" value="" style="rounded=0;whiteSpace=wrap;html=1;fontSize=18;fillColor=none;dashed=1;" parent="BmJq23okPt8XBxkQ6SYb-4" vertex="1">
          <mxGeometry width="520" height="160" as="geometry" />
        </mxCell>
        <mxCell id="BmJq23okPt8XBxkQ6SYb-6" value="" style="group" parent="BmJq23okPt8XBxkQ6SYb-4" vertex="1" connectable="0">
          <mxGeometry width="510" height="160" as="geometry" />
        </mxCell>
        <mxCell id="BmJq23okPt8XBxkQ6SYb-7" value="" style="group" parent="BmJq23okPt8XBxkQ6SYb-6" vertex="1" connectable="0">
          <mxGeometry x="81" width="429" height="160" as="geometry" />
        </mxCell>
        <mxCell id="BmJq23okPt8XBxkQ6SYb-8" value="" style="shape=curlyBracket;whiteSpace=wrap;html=1;rounded=1;fontSize=18;" parent="BmJq23okPt8XBxkQ6SYb-7" vertex="1">
          <mxGeometry y="12" width="20" height="140" as="geometry" />
        </mxCell>
        <mxCell id="BmJq23okPt8XBxkQ6SYb-9" value="&lt;font style=&quot;font-size: 20px&quot;&gt;cluster_id = 1&lt;/font&gt;" style="text;html=1;strokeColor=none;fillColor=none;align=center;verticalAlign=middle;whiteSpace=wrap;rounded=0;fontSize=18;" parent="BmJq23okPt8XBxkQ6SYb-7" vertex="1">
          <mxGeometry x="18" width="146" height="44" as="geometry" />
        </mxCell>
        <mxCell id="BmJq23okPt8XBxkQ6SYb-10" value="&lt;font style=&quot;font-size: 20px&quot;&gt;topic =&amp;nbsp;original_swy_glog&lt;/font&gt;" style="text;html=1;strokeColor=none;fillColor=none;align=center;verticalAlign=middle;whiteSpace=wrap;rounded=0;fontSize=18;" parent="BmJq23okPt8XBxkQ6SYb-7" vertex="1">
          <mxGeometry x="29" y="40" width="231" height="40" as="geometry" />
        </mxCell>
        <mxCell id="BmJq23okPt8XBxkQ6SYb-11" value="&lt;div&gt;&lt;span style=&quot;font-size: 20px&quot;&gt;log_type = glog&lt;/span&gt;&lt;/div&gt;" style="text;html=1;strokeColor=none;fillColor=none;align=left;verticalAlign=middle;whiteSpace=wrap;rounded=0;fontSize=18;" parent="BmJq23okPt8XBxkQ6SYb-7" vertex="1">
          <mxGeometry x="29" y="80" width="240" height="40" as="geometry" />
        </mxCell>
        <mxCell id="BmJq23okPt8XBxkQ6SYb-12" value="&lt;span style=&quot;font-size: 20px&quot;&gt;lastUpdateTime&amp;nbsp;&lt;/span&gt;&lt;span style=&quot;font-size: 20px&quot;&gt;= 2020-02-28 15:56:53.000&lt;/span&gt;&lt;span style=&quot;font-size: 20px&quot;&gt;&lt;br&gt;&lt;/span&gt;" style="text;html=1;strokeColor=none;fillColor=none;align=left;verticalAlign=middle;whiteSpace=wrap;rounded=0;fontSize=18;" parent="BmJq23okPt8XBxkQ6SYb-7" vertex="1">
          <mxGeometry x="29" y="120" width="400" height="40" as="geometry" />
        </mxCell>
        <mxCell id="BmJq23okPt8XBxkQ6SYb-13" value="&lt;font style=&quot;font-size: 26px&quot;&gt;swy&lt;/font&gt;" style="text;html=1;strokeColor=none;fillColor=none;align=center;verticalAlign=middle;whiteSpace=wrap;rounded=0;fontSize=18;" parent="BmJq23okPt8XBxkQ6SYb-6" vertex="1">
          <mxGeometry y="60" width="70" height="40" as="geometry" />
        </mxCell>
        <mxCell id="BmJq23okPt8XBxkQ6SYb-14" value="" style="endArrow=classic;html=1;fontSize=18;exitX=1;exitY=0.5;exitDx=0;exitDy=0;entryX=0;entryY=0.5;entryDx=0;entryDy=0;" parent="1" source="BmJq23okPt8XBxkQ6SYb-3" target="BmJq23okPt8XBxkQ6SYb-5" edge="1">
          <mxGeometry width="50" height="50" relative="1" as="geometry">
            <mxPoint x="350" y="240" as="sourcePoint" />
            <mxPoint x="400" y="190" as="targetPoint" />
          </mxGeometry>
        </mxCell>
        <mxCell id="BmJq23okPt8XBxkQ6SYb-15" value="" style="endArrow=classic;html=1;fontSize=18;exitX=0.463;exitY=-0.003;exitDx=0;exitDy=0;exitPerimeter=0;entryX=0.5;entryY=1;entryDx=0;entryDy=0;" parent="1" source="BmJq23okPt8XBxkQ6SYb-21" target="BmJq23okPt8XBxkQ6SYb-3" edge="1">
          <mxGeometry width="50" height="50" relative="1" as="geometry">
            <mxPoint x="190" y="550" as="sourcePoint" />
            <mxPoint x="240" y="500" as="targetPoint" />
          </mxGeometry>
        </mxCell>
        <mxCell id="BmJq23okPt8XBxkQ6SYb-16" value="&lt;font style=&quot;font-size: 22px&quot;&gt;Kafka（original_swy_glog）&lt;/font&gt;" style="rounded=1;whiteSpace=wrap;html=1;fillColor=#ffffff;fontSize=18;shadow=1;" parent="1" vertex="1">
          <mxGeometry x="470" y="420" width="330" height="60" as="geometry" />
        </mxCell>
        <mxCell id="BmJq23okPt8XBxkQ6SYb-17" value="" style="endArrow=classic;html=1;fontSize=18;exitX=1;exitY=0.5;exitDx=0;exitDy=0;entryX=0;entryY=0.5;entryDx=0;entryDy=0;" parent="1" source="BmJq23okPt8XBxkQ6SYb-21" target="BmJq23okPt8XBxkQ6SYb-16" edge="1">
          <mxGeometry width="50" height="50" relative="1" as="geometry">
            <mxPoint x="390" y="560" as="sourcePoint" />
            <mxPoint x="440" y="510" as="targetPoint" />
          </mxGeometry>
        </mxCell>
        <mxCell id="BmJq23okPt8XBxkQ6SYb-18" value="&lt;h1 style=&quot;font-size: 25px&quot;&gt;&lt;font style=&quot;font-size: 25px&quot;&gt;Kafka Msg Header&lt;/font&gt;&lt;/h1&gt;&lt;div style=&quot;font-size: 25px&quot;&gt;&lt;div&gt;&lt;font color=&quot;#ff0000&quot; style=&quot;font-size: 25px&quot;&gt;cluster_id = 1&lt;/font&gt;&lt;/div&gt;&lt;div&gt;&lt;font color=&quot;#ff0000&quot; style=&quot;font-size: 25px&quot;&gt;topic = original_swy_glog&lt;/font&gt;&lt;/div&gt;&lt;div&gt;&lt;font color=&quot;#ff0000&quot; style=&quot;font-size: 25px&quot;&gt;real_topic = swy_olnum_glog&lt;/font&gt;&lt;/div&gt;&lt;div&gt;&lt;font color=&quot;#ff0000&quot; style=&quot;font-size: 25px&quot;&gt;log_type = glog&lt;/font&gt;&lt;/div&gt;&lt;div&gt;&lt;font color=&quot;#ff0000&quot; style=&quot;font-size: 25px&quot;&gt;key = 雪花算法&lt;/font&gt;&lt;/div&gt;&lt;div&gt;&lt;font color=&quot;#ff0000&quot; style=&quot;font-size: 25px&quot;&gt;mapping = swy&lt;/font&gt;&lt;/div&gt;&lt;/div&gt;" style="text;html=1;strokeColor=none;fillColor=none;spacing=5;spacingTop=-20;whiteSpace=wrap;overflow=hidden;rounded=0;fontSize=18;" parent="1" vertex="1">
          <mxGeometry x="490" y="580" width="340" height="260" as="geometry" />
        </mxCell>
        <mxCell id="BmJq23okPt8XBxkQ6SYb-25" value="" style="shape=curlyBracket;whiteSpace=wrap;html=1;rounded=1;fillColor=none;fontSize=18;" parent="1" vertex="1">
          <mxGeometry x="990" y="390" width="20" height="120" as="geometry" />
        </mxCell>
        <mxCell id="BmJq23okPt8XBxkQ6SYb-26" value="" style="endArrow=classic;html=1;fontSize=18;exitX=1;exitY=0.5;exitDx=0;exitDy=0;entryX=0.1;entryY=0.5;entryDx=0;entryDy=0;entryPerimeter=0;" parent="1" source="BmJq23okPt8XBxkQ6SYb-16" target="BmJq23okPt8XBxkQ6SYb-25" edge="1">
          <mxGeometry width="50" height="50" relative="1" as="geometry">
            <mxPoint x="860" y="510" as="sourcePoint" />
            <mxPoint x="910" y="460" as="targetPoint" />
          </mxGeometry>
        </mxCell>
        <mxCell id="BmJq23okPt8XBxkQ6SYb-27" value="&lt;font style=&quot;font-size: 20px&quot;&gt;Topic 拆分&lt;/font&gt;" style="rounded=1;whiteSpace=wrap;html=1;fillColor=#ffffff;fontSize=18;shadow=1;" parent="1" vertex="1">
          <mxGeometry x="1030" y="500" width="120" height="40" as="geometry" />
        </mxCell>
        <mxCell id="oALAKt9au2JZdJOSl9EY-2" value="" style="edgeStyle=orthogonalEdgeStyle;rounded=0;orthogonalLoop=1;jettySize=auto;html=1;" edge="1" parent="1" source="BmJq23okPt8XBxkQ6SYb-28">
          <mxGeometry relative="1" as="geometry">
            <mxPoint x="1275" y="505" as="targetPoint" />
          </mxGeometry>
        </mxCell>
        <mxCell id="BmJq23okPt8XBxkQ6SYb-28" value="&lt;h1 style=&quot;font-size: 25px&quot;&gt;&lt;font style=&quot;font-size: 25px&quot;&gt;Split Topic&lt;/font&gt;&lt;/h1&gt;&lt;div style=&quot;font-size: 25px&quot;&gt;&lt;font style=&quot;font-size: 25px&quot;&gt;1. 例如现在需要swy_item_glog表做监控&lt;/font&gt;&lt;/div&gt;&lt;div style=&quot;font-size: 25px&quot;&gt;&lt;font style=&quot;font-size: 25px&quot;&gt;2. 利用拆分程序消费original_swy_glog数据，过滤出swy_item_glog的数据&lt;/font&gt;&lt;/div&gt;&lt;div style=&quot;font-size: 25px&quot;&gt;&lt;font style=&quot;font-size: 25px&quot;&gt;3. 建立swy_item_glog 的kafka topic&lt;/font&gt;&lt;/div&gt;&lt;div style=&quot;font-size: 25px&quot;&gt;&lt;font style=&quot;font-size: 25px&quot;&gt;4. 将数据重新写入swy_item_glog&lt;/font&gt;&lt;/div&gt;" style="text;html=1;strokeColor=none;fillColor=none;spacing=5;spacingTop=-20;whiteSpace=wrap;overflow=hidden;rounded=0;fontSize=18;" parent="1" vertex="1">
          <mxGeometry x="1010" y="585" width="530" height="235" as="geometry" />
        </mxCell>
        <mxCell id="BmJq23okPt8XBxkQ6SYb-29" value="" style="edgeStyle=elbowEdgeStyle;elbow=horizontal;endArrow=classic;html=1;fontSize=18;entryX=0.5;entryY=1;entryDx=0;entryDy=0;exitX=0.434;exitY=0.986;exitDx=0;exitDy=0;exitPerimeter=0;" parent="1" source="BmJq23okPt8XBxkQ6SYb-27" target="BmJq23okPt8XBxkQ6SYb-16" edge="1">
          <mxGeometry width="50" height="50" relative="1" as="geometry">
            <mxPoint x="880" y="560" as="sourcePoint" />
            <mxPoint x="930" y="510" as="targetPoint" />
            <Array as="points">
              <mxPoint x="780" y="550" />
            </Array>
          </mxGeometry>
        </mxCell>
        <mxCell id="BmJq23okPt8XBxkQ6SYb-30" value="&lt;font style=&quot;font-size: 20px&quot;&gt;流式计算&lt;/font&gt;" style="rounded=1;whiteSpace=wrap;html=1;fillColor=#ffffff;fontSize=18;shadow=1;" parent="1" vertex="1">
          <mxGeometry x="1030" y="429" width="120" height="42" as="geometry" />
        </mxCell>
        <mxCell id="BmJq23okPt8XBxkQ6SYb-31" value="&lt;font style=&quot;font-size: 20px&quot;&gt;Bridge 数据落地&lt;/font&gt;" style="rounded=1;whiteSpace=wrap;html=1;fillColor=#ffffff;fontSize=18;shadow=1;" parent="1" vertex="1">
          <mxGeometry x="1030" y="360" width="160" height="40" as="geometry" />
        </mxCell>
        <mxCell id="BmJq23okPt8XBxkQ6SYb-32" value="&lt;h1 style=&quot;font-size: 25px&quot;&gt;&lt;font style=&quot;font-size: 25px&quot;&gt;Bridge Sink&lt;/font&gt;&lt;/h1&gt;&lt;div style=&quot;font-size: 25px&quot;&gt;&lt;div&gt;&lt;font color=&quot;#ff0000&quot; style=&quot;font-size: 25px&quot;&gt;real_topic = swy_olnum_glog&lt;/font&gt;&lt;/div&gt;&lt;div&gt;&lt;font color=&quot;#ff0000&quot; style=&quot;font-size: 25px&quot;&gt;key = 雪花算法&lt;/font&gt;&lt;/div&gt;&lt;div&gt;&lt;font style=&quot;font-size: 25px&quot;&gt;1. 根据real_topic将消息反序列化&lt;/font&gt;&lt;/div&gt;&lt;div&gt;&lt;font style=&quot;font-size: 25px&quot;&gt;2. 消息处理逻辑不变继续入库&lt;/font&gt;&lt;/div&gt;&lt;/div&gt;" style="text;html=1;strokeColor=none;fillColor=none;spacing=5;spacingTop=-20;whiteSpace=wrap;overflow=hidden;rounded=0;fontSize=18;" parent="1" vertex="1">
          <mxGeometry x="1230" y="226" width="400" height="220" as="geometry" />
        </mxCell>
        <mxCell id="BmJq23okPt8XBxkQ6SYb-33" value="" style="group" parent="1" vertex="1" connectable="0">
          <mxGeometry x="1690" y="190" width="130" height="286" as="geometry" />
        </mxCell>
        <mxCell id="BmJq23okPt8XBxkQ6SYb-34" value="HDFS" style="shape=cylinder;whiteSpace=wrap;html=1;boundedLbl=1;backgroundOutline=1;fillColor=#ffffff;fontSize=18;shadow=1;" parent="BmJq23okPt8XBxkQ6SYb-33" vertex="1">
          <mxGeometry width="130" height="80" as="geometry" />
        </mxCell>
        <mxCell id="BmJq23okPt8XBxkQ6SYb-35" value="KUDU" style="shape=cylinder;whiteSpace=wrap;html=1;boundedLbl=1;backgroundOutline=1;fillColor=#ffffff;fontSize=18;shadow=1;" parent="BmJq23okPt8XBxkQ6SYb-33" vertex="1">
          <mxGeometry y="106" width="130" height="80" as="geometry" />
        </mxCell>
        <mxCell id="BmJq23okPt8XBxkQ6SYb-36" value="ES" style="shape=cylinder;whiteSpace=wrap;html=1;boundedLbl=1;backgroundOutline=1;fillColor=#ffffff;fontSize=18;shadow=1;" parent="BmJq23okPt8XBxkQ6SYb-33" vertex="1">
          <mxGeometry y="206" width="130" height="80" as="geometry" />
        </mxCell>
        <mxCell id="BmJq23okPt8XBxkQ6SYb-37" value="" style="shape=curlyBracket;whiteSpace=wrap;html=1;rounded=1;fillColor=none;fontSize=18;" parent="1" vertex="1">
          <mxGeometry x="1630" y="226" width="40" height="240" as="geometry" />
        </mxCell>
      </root>
    </mxGraphModel>
  </diagram>
</mxfile>
